<svg width="67" height="62" viewBox="0 0 67 62" fill="none" xmlns="http://www.w3.org/2000/svg">
<path d="M33.3333 61.0833L29.9167 58C24.0406 52.6044 19.1828 47.95 15.3433 44.0367C11.5033 40.1233 8.44444 36.625 6.16667 33.5417C3.88889 30.4583 2.29167 27.6667 1.375 25.1667C0.458333 22.6667 0 20.1389 0 17.5833C0 12.575 1.68056 8.39222 5.04167 5.035C8.40278 1.67833 12.5556 0 17.5 0C20.6667 0 23.5972 0.75 26.2917 2.25C28.9861 3.75 31.3333 5.91667 33.3333 8.75C35.6667 5.75 38.1389 3.54167 40.75 2.125C43.3611 0.708333 46.1667 0 49.1667 0C54.1111 0 58.2639 1.67833 61.625 5.035C64.9861 8.39222 66.6667 12.575 66.6667 17.5833C66.6667 20.1389 66.2083 22.6667 65.2917 25.1667C64.375 27.6667 62.7778 30.4583 60.5 33.5417C58.2222 36.625 55.1633 40.1233 51.3233 44.0367C47.4839 47.95 42.6261 52.6044 36.75 58L33.3333 61.0833ZM33.3333 54.5C38.9578 49.3333 43.5861 44.9028 47.2183 41.2083C50.8506 37.5139 53.7361 34.2778 55.875 31.5C58.0139 28.7222 59.5139 26.2461 60.375 24.0717C61.2361 21.8978 61.6667 19.7389 61.6667 17.595C61.6667 13.9206 60.5 10.9028 58.1667 8.54167C55.8333 6.18056 52.8394 5 49.185 5C46.3228 5 43.6736 5.875 41.2375 7.625C38.8014 9.375 36.8333 11.8333 35.3333 15H31.25C29.8056 11.8889 27.8653 9.44444 25.4292 7.66667C22.9931 5.88889 20.3439 5 17.4817 5C13.8272 5 10.8333 6.18056 8.5 8.54167C6.16667 10.9028 5 13.9256 5 17.61C5 19.7589 5.43056 21.9306 6.29167 24.125C7.15278 26.3194 8.65278 28.8194 10.7917 31.625C12.9306 34.4306 15.8333 37.6667 19.5 41.3333C23.1667 45 27.7778 49.3889 33.3333 54.5Z" fill="#235F76"/>
</svg>
