<svg width="67" height="67" viewBox="0 0 67 67" fill="none" xmlns="http://www.w3.org/2000/svg">
<path d="M24.3333 66.6667L23 56C22.2778 55.7222 21.5972 55.3889 20.9583 55C20.3194 54.6111 19.6944 54.1944 19.0833 53.75L9.16667 57.9167L0 42.0833L8.58333 35.5833C8.52778 35.1944 8.5 34.8194 8.5 34.4583V32.2083C8.5 31.8472 8.52778 31.4722 8.58333 31.0833L0 24.5833L9.16667 8.75L19.0833 12.9167C19.6944 12.4722 20.3333 12.0556 21 11.6667C21.6667 11.2778 22.3333 10.9444 23 10.6667L24.3333 0H42.6667L44 10.6667C44.7222 10.9444 45.4028 11.2778 46.0417 11.6667C46.6806 12.0556 47.3056 12.4722 47.9167 12.9167L57.8333 8.75L67 24.5833L58.4167 31.0833C58.4722 31.4722 58.5 31.8472 58.5 32.2083V34.4583C58.5 34.8194 58.4444 35.1944 58.3333 35.5833L66.9167 42.0833L57.75 57.9167L47.9167 53.75C47.3056 54.1944 46.6667 54.6111 46 55C45.3333 55.3889 44.6667 55.7222 44 56L42.6667 66.6667H24.3333ZM30.1667 60H36.75L37.9167 51.1667C39.6389 50.7222 41.2361 50.0694 42.7083 49.2083C44.1806 48.3472 45.5278 47.3056 46.75 46.0833L55 49.5L58.25 43.8333L51.0833 38.4167C51.3611 37.6389 51.5556 36.8194 51.6667 35.9583C51.7778 35.0972 51.8333 34.2222 51.8333 33.3333C51.8333 32.4444 51.7778 31.5694 51.6667 30.7083C51.5556 29.8472 51.3611 29.0278 51.0833 28.25L58.25 22.8333L55 17.1667L46.75 20.6667C45.5278 19.3889 44.1806 18.3194 42.7083 17.4583C41.2361 16.5972 39.6389 15.9444 37.9167 15.5L36.8333 6.66667H30.25L29.0833 15.5C27.3611 15.9444 25.7639 16.5972 24.2917 17.4583C22.8194 18.3194 21.4722 19.3611 20.25 20.5833L12 17.1667L8.75 22.8333L15.9167 28.1667C15.6389 29 15.4444 29.8333 15.3333 30.6667C15.2222 31.5 15.1667 32.3889 15.1667 33.3333C15.1667 34.2222 15.2222 35.0833 15.3333 35.9167C15.4444 36.75 15.6389 37.5833 15.9167 38.4167L8.75 43.8333L12 49.5L20.25 46C21.4722 47.2778 22.8194 48.3472 24.2917 49.2083C25.7639 50.0694 27.3611 50.7222 29.0833 51.1667L30.1667 60ZM33.6667 45C36.8889 45 39.6389 43.8611 41.9167 41.5833C44.1944 39.3056 45.3333 36.5556 45.3333 33.3333C45.3333 30.1111 44.1944 27.3611 41.9167 25.0833C39.6389 22.8056 36.8889 21.6667 33.6667 21.6667C30.3889 21.6667 27.625 22.8056 25.375 25.0833C23.125 27.3611 22 30.1111 22 33.3333C22 36.5556 23.125 39.3056 25.375 41.5833C27.625 43.8611 30.3889 45 33.6667 45Z" fill="#235F76"/>
</svg>
