<svg width="74" height="60" viewBox="0 0 74 60" fill="none" xmlns="http://www.w3.org/2000/svg">
<path d="M10 60V26.5833L3 31.9167L0 27.9167L36.6667 0L73.3333 28L70.3333 31.9167L63.3333 26.5833V60H10ZM15 55H58.3333V22.75L36.6667 6.25L15 22.75V55ZM23.3333 40C22.3889 40 21.5972 39.6806 20.9583 39.0417C20.3194 38.4028 20 37.6111 20 36.6667C20 35.7222 20.3194 34.9306 20.9583 34.2917C21.5972 33.6528 22.3889 33.3333 23.3333 33.3333C24.2778 33.3333 25.0694 33.6528 25.7083 34.2917C26.3472 34.9306 26.6667 35.7222 26.6667 36.6667C26.6667 37.6111 26.3472 38.4028 25.7083 39.0417C25.0694 39.6806 24.2778 40 23.3333 40ZM36.6667 40C35.7222 40 34.9306 39.6806 34.2917 39.0417C33.6528 38.4028 33.3333 37.6111 33.3333 36.6667C33.3333 35.7222 33.6528 34.9306 34.2917 34.2917C34.9306 33.6528 35.7222 33.3333 36.6667 33.3333C37.6111 33.3333 38.4028 33.6528 39.0417 34.2917C39.6806 34.9306 40 35.7222 40 36.6667C40 37.6111 39.6806 38.4028 39.0417 39.0417C38.4028 39.6806 37.6111 40 36.6667 40ZM50 40C49.0556 40 48.2639 39.6806 47.625 39.0417C46.9861 38.4028 46.6667 37.6111 46.6667 36.6667C46.6667 35.7222 46.9861 34.9306 47.625 34.2917C48.2639 33.6528 49.0556 33.3333 50 33.3333C50.9444 33.3333 51.7361 33.6528 52.375 34.2917C53.0139 34.9306 53.3333 35.7222 53.3333 36.6667C53.3333 37.6111 53.0139 38.4028 52.375 39.0417C51.7361 39.6806 50.9444 40 50 40Z" fill="#235F76"/>
</svg>
